<mxfile host="app.diagrams.net" modified="2023-02-13T06:27:11.981Z" agent="5.0 (Windows NT 10.0; Win64; x64) AppleWebKit/537.36 (KHTML, like Gecko) Chrome/110.0.0.0 Safari/537.36" etag="Np7m9JdeHu2nJKc3BSQY" version="20.3.6" type="github">
  <diagram name="Page-1" id="8GGUxriFpIpzjGoA7ucQ">
    <mxGraphModel dx="3694" dy="1596" grid="1" gridSize="10" guides="1" tooltips="1" connect="1" arrows="1" fold="1" page="1" pageScale="1" pageWidth="850" pageHeight="1100" math="0" shadow="0">
      <root>
        <mxCell id="0" />
        <mxCell id="1" parent="0" />
        <mxCell id="yWVErNZN91S-6EF0SYBx-26" value="" style="ellipse;shape=cloud;whiteSpace=wrap;html=1;sketch=1;hachureGap=4;jiggle=2;curveFitting=1;strokeColor=#000000;fontFamily=Architects Daughter;fontSource=https%3A%2F%2Ffonts.googleapis.com%2Fcss%3Ffamily%3DArchitects%2BDaughter;fontSize=20;fillColor=none;gradientColor=none;" parent="1" vertex="1">
          <mxGeometry x="540" y="898" width="250" height="152" as="geometry" />
        </mxCell>
        <mxCell id="yWVErNZN91S-6EF0SYBx-10" value="" style="shape=mxgraph.cisco.buildings.telecommuter_house_pc;html=1;pointerEvents=1;dashed=0;fillColor=none;strokeColor=#030303;strokeWidth=2;verticalLabelPosition=bottom;verticalAlign=top;align=center;outlineConnect=0;sketch=1;hachureGap=4;jiggle=2;curveFitting=1;fontFamily=Architects Daughter;fontSource=https%3A%2F%2Ffonts.googleapis.com%2Fcss%3Ffamily%3DArchitects%2BDaughter;fontSize=20;" parent="1" vertex="1">
          <mxGeometry x="220" y="380" width="510" height="360" as="geometry" />
        </mxCell>
        <mxCell id="yWVErNZN91S-6EF0SYBx-8" value="" style="fontColor=#ffffff;verticalAlign=top;verticalLabelPosition=bottom;labelPosition=center;align=center;html=1;outlineConnect=0;fillColor=none;strokeColor=#2D7600;gradientDirection=north;strokeWidth=2;shape=mxgraph.networks.security_camera;sketch=1;hachureGap=4;jiggle=2;curveFitting=1;fontFamily=Architects Daughter;fontSource=https%3A%2F%2Ffonts.googleapis.com%2Fcss%3Ffamily%3DArchitects%2BDaughter;fontSize=20;rotation=-45;" parent="1" vertex="1">
          <mxGeometry x="650" y="410" width="70" height="40" as="geometry" />
        </mxCell>
        <mxCell id="yWVErNZN91S-6EF0SYBx-19" value="" style="shape=umlActor;verticalLabelPosition=bottom;verticalAlign=top;html=1;outlineConnect=0;sketch=1;hachureGap=4;jiggle=2;curveFitting=1;strokeColor=#000000;fontFamily=Architects Daughter;fontSource=https%3A%2F%2Ffonts.googleapis.com%2Fcss%3Ffamily%3DArchitects%2BDaughter;fontSize=20;fillColor=none;" parent="1" vertex="1">
          <mxGeometry x="290" y="672" width="30" height="60" as="geometry" />
        </mxCell>
        <mxCell id="yWVErNZN91S-6EF0SYBx-25" value="" style="shape=datastore;whiteSpace=wrap;html=1;sketch=1;hachureGap=4;jiggle=2;curveFitting=1;strokeColor=#000000;fontFamily=Architects Daughter;fontSource=https%3A%2F%2Ffonts.googleapis.com%2Fcss%3Ffamily%3DArchitects%2BDaughter;fontSize=20;fillColor=none;gradientColor=none;" parent="1" vertex="1">
          <mxGeometry x="660" y="943" width="60" height="60" as="geometry" />
        </mxCell>
        <mxCell id="yWVErNZN91S-6EF0SYBx-31" value="" style="endArrow=classic;html=1;rounded=0;sketch=1;hachureGap=4;jiggle=2;curveFitting=1;fontFamily=Architects Daughter;fontSource=https%3A%2F%2Ffonts.googleapis.com%2Fcss%3Ffamily%3DArchitects%2BDaughter;fontSize=16;entryX=0.625;entryY=0.2;entryDx=0;entryDy=0;entryPerimeter=0;exitX=0.98;exitY=0.94;exitDx=0;exitDy=0;exitPerimeter=0;" parent="1" source="yWVErNZN91S-6EF0SYBx-77" target="yWVErNZN91S-6EF0SYBx-26" edge="1">
          <mxGeometry relative="1" as="geometry">
            <mxPoint x="780.2010050251256" y="760.0000000000002" as="sourcePoint" />
            <mxPoint x="530" y="788" as="targetPoint" />
            <Array as="points">
              <mxPoint x="620" y="730" />
              <mxPoint x="700" y="730" />
            </Array>
          </mxGeometry>
        </mxCell>
        <mxCell id="yWVErNZN91S-6EF0SYBx-32" value="" style="shape=message;html=1;outlineConnect=0;sketch=1;hachureGap=4;jiggle=2;curveFitting=1;strokeColor=#000000;fontFamily=Architects Daughter;fontSource=https%3A%2F%2Ffonts.googleapis.com%2Fcss%3Ffamily%3DArchitects%2BDaughter;fontSize=20;fillColor=none;gradientColor=none;" parent="yWVErNZN91S-6EF0SYBx-31" vertex="1">
          <mxGeometry width="20" height="14" relative="1" as="geometry">
            <mxPoint x="-10" y="7" as="offset" />
          </mxGeometry>
        </mxCell>
        <mxCell id="yWVErNZN91S-6EF0SYBx-139" value="upload" style="edgeLabel;html=1;align=center;verticalAlign=middle;resizable=0;points=[];fontSize=16;fontFamily=Architects Daughter;rotation=90;" parent="yWVErNZN91S-6EF0SYBx-31" vertex="1" connectable="0">
          <mxGeometry x="0.3454" y="-2" relative="1" as="geometry">
            <mxPoint x="22" y="7" as="offset" />
          </mxGeometry>
        </mxCell>
        <mxCell id="yWVErNZN91S-6EF0SYBx-36" value="" style="shape=mxgraph.arrows2.wedgeArrowDashed2;html=1;bendable=0;startWidth=50;stepSize=15;rounded=0;sketch=1;hachureGap=4;jiggle=2;curveFitting=1;fontFamily=Architects Daughter;fontSource=https%3A%2F%2Ffonts.googleapis.com%2Fcss%3Ffamily%3DArchitects%2BDaughter;fontSize=16;" parent="1" target="yWVErNZN91S-6EF0SYBx-8" edge="1">
          <mxGeometry width="100" height="100" relative="1" as="geometry">
            <mxPoint x="780" y="280" as="sourcePoint" />
            <mxPoint x="580" y="410" as="targetPoint" />
          </mxGeometry>
        </mxCell>
        <mxCell id="yWVErNZN91S-6EF0SYBx-37" value="" style="verticalLabelPosition=bottom;verticalAlign=top;html=1;shadow=0;dashed=0;strokeWidth=1;shape=mxgraph.android.phone2;strokeColor=#030303;sketch=1;hachureGap=4;jiggle=2;curveFitting=1;fontFamily=Architects Daughter;fontSource=https%3A%2F%2Ffonts.googleapis.com%2Fcss%3Ffamily%3DArchitects%2BDaughter;fontSize=20;fillColor=none;gradientColor=none;" parent="1" vertex="1">
          <mxGeometry x="155" y="380" width="65" height="110" as="geometry" />
        </mxCell>
        <mxCell id="yWVErNZN91S-6EF0SYBx-43" value="" style="verticalLabelPosition=bottom;verticalAlign=top;html=1;shadow=0;dashed=0;strokeWidth=1;shape=mxgraph.ios.iBgMap;strokeColor=#18211b;strokeColor2=#008cff;fillColor2=#96D1FF;sketch=1;hachureGap=4;jiggle=2;curveFitting=1;fontFamily=Architects Daughter;fontSource=https%3A%2F%2Ffonts.googleapis.com%2Fcss%3Ffamily%3DArchitects%2BDaughter;fontSize=20;fillColor=default;gradientColor=none;" parent="1" vertex="1">
          <mxGeometry x="30.75" y="575" width="142.5" height="180" as="geometry" />
        </mxCell>
        <mxCell id="yWVErNZN91S-6EF0SYBx-44" value="" style="endArrow=classic;html=1;rounded=0;sketch=1;hachureGap=4;jiggle=2;curveFitting=1;fontFamily=Architects Daughter;fontSource=https%3A%2F%2Ffonts.googleapis.com%2Fcss%3Ffamily%3DArchitects%2BDaughter;fontSize=16;exitX=0.25;exitY=0.25;exitDx=0;exitDy=0;exitPerimeter=0;entryX=0.474;entryY=0.894;entryDx=0;entryDy=0;entryPerimeter=0;" parent="1" source="yWVErNZN91S-6EF0SYBx-26" target="yWVErNZN91S-6EF0SYBx-130" edge="1">
          <mxGeometry relative="1" as="geometry">
            <mxPoint x="250" y="808" as="sourcePoint" />
            <mxPoint x="180" y="880" as="targetPoint" />
            <Array as="points">
              <mxPoint x="100" y="930" />
            </Array>
          </mxGeometry>
        </mxCell>
        <mxCell id="yWVErNZN91S-6EF0SYBx-45" value="" style="shape=message;html=1;outlineConnect=0;sketch=1;hachureGap=4;jiggle=2;curveFitting=1;strokeColor=#030303;fontFamily=Architects Daughter;fontSource=https%3A%2F%2Ffonts.googleapis.com%2Fcss%3Ffamily%3DArchitects%2BDaughter;fontSize=20;fillColor=default;gradientColor=none;" parent="yWVErNZN91S-6EF0SYBx-44" vertex="1">
          <mxGeometry width="20" height="14" relative="1" as="geometry">
            <mxPoint x="-10" y="-7" as="offset" />
          </mxGeometry>
        </mxCell>
        <mxCell id="yWVErNZN91S-6EF0SYBx-48" value="" style="html=1;verticalLabelPosition=bottom;align=center;labelBackgroundColor=#ffffff;verticalAlign=top;strokeWidth=2;strokeColor=#6F0000;shadow=0;dashed=0;shape=mxgraph.ios7.icons.location;sketch=1;hachureGap=4;jiggle=2;curveFitting=1;fontFamily=Architects Daughter;fontSource=https%3A%2F%2Ffonts.googleapis.com%2Fcss%3Ffamily%3DArchitects%2BDaughter;fontSize=20;fillColor=none;fontColor=#ffffff;" parent="1" vertex="1">
          <mxGeometry x="110" y="590" width="24" height="30" as="geometry" />
        </mxCell>
        <mxCell id="yWVErNZN91S-6EF0SYBx-49" value="" style="html=1;verticalLabelPosition=bottom;align=center;labelBackgroundColor=#ffffff;verticalAlign=top;strokeWidth=2;strokeColor=#6F0000;shadow=0;dashed=0;shape=mxgraph.ios7.icons.location;sketch=1;hachureGap=4;jiggle=2;curveFitting=1;fontFamily=Architects Daughter;fontSource=https%3A%2F%2Ffonts.googleapis.com%2Fcss%3Ffamily%3DArchitects%2BDaughter;fontSize=20;fillColor=none;fontColor=#ffffff;" parent="1" vertex="1">
          <mxGeometry x="60" y="630" width="24" height="30" as="geometry" />
        </mxCell>
        <mxCell id="yWVErNZN91S-6EF0SYBx-50" value="" style="html=1;verticalLabelPosition=bottom;align=center;labelBackgroundColor=#ffffff;verticalAlign=top;strokeWidth=2;strokeColor=#6F0000;shadow=0;dashed=0;shape=mxgraph.ios7.icons.location;sketch=1;hachureGap=4;jiggle=2;curveFitting=1;fontFamily=Architects Daughter;fontSource=https%3A%2F%2Ffonts.googleapis.com%2Fcss%3Ffamily%3DArchitects%2BDaughter;fontSize=20;fillColor=none;fontColor=#ffffff;" parent="1" vertex="1">
          <mxGeometry x="110" y="660" width="24" height="30" as="geometry" />
        </mxCell>
        <mxCell id="yWVErNZN91S-6EF0SYBx-51" value="fetch" style="html=1;verticalAlign=bottom;endArrow=block;edgeStyle=elbowEdgeStyle;elbow=vertical;curved=0;rounded=0;sketch=1;hachureGap=4;jiggle=2;curveFitting=1;fontFamily=Architects Daughter;fontSource=https%3A%2F%2Ffonts.googleapis.com%2Fcss%3Ffamily%3DArchitects%2BDaughter;fontSize=16;entryX=0.4;entryY=0.1;entryDx=0;entryDy=0;entryPerimeter=0;exitX=0.713;exitY=1.004;exitDx=0;exitDy=0;exitPerimeter=0;" parent="1" source="yWVErNZN91S-6EF0SYBx-43" target="yWVErNZN91S-6EF0SYBx-26" edge="1">
          <mxGeometry width="80" relative="1" as="geometry">
            <mxPoint x="140" y="810" as="sourcePoint" />
            <mxPoint x="500" y="888" as="targetPoint" />
          </mxGeometry>
        </mxCell>
        <mxCell id="yWVErNZN91S-6EF0SYBx-52" value="" style="edgeStyle=none;html=1;endArrow=open;endSize=12;strokeWidth=3;verticalAlign=bottom;rounded=0;sketch=1;hachureGap=4;jiggle=2;curveFitting=1;fontFamily=Architects Daughter;fontSource=https%3A%2F%2Ffonts.googleapis.com%2Fcss%3Ffamily%3DArchitects%2BDaughter;fontSize=16;entryX=0.089;entryY=0.007;entryDx=0;entryDy=0;entryPerimeter=0;exitX=0.276;exitY=0.513;exitDx=0;exitDy=0;exitPerimeter=0;" parent="1" source="yWVErNZN91S-6EF0SYBx-43" target="yWVErNZN91S-6EF0SYBx-69" edge="1">
          <mxGeometry width="160" relative="1" as="geometry">
            <mxPoint x="80" y="634.58" as="sourcePoint" />
            <mxPoint x="-70" y="634.58" as="targetPoint" />
          </mxGeometry>
        </mxCell>
        <mxCell id="yWVErNZN91S-6EF0SYBx-69" value="Traffic Data Table" style="shape=table;startSize=30;container=1;collapsible=0;childLayout=tableLayout;fillColor=#fff2cc;strokeColor=#000000;fontStyle=1;shadow=1;swimlaneFillColor=#FFFFFF;fontColor=#000000;sketch=1;hachureGap=4;jiggle=2;curveFitting=1;fontFamily=Architects Daughter;fontSource=https%3A%2F%2Ffonts.googleapis.com%2Fcss%3Ffamily%3DArchitects%2BDaughter;fontSize=16;" parent="1" vertex="1">
          <mxGeometry x="50" y="960" width="310" height="80" as="geometry" />
        </mxCell>
        <mxCell id="yWVErNZN91S-6EF0SYBx-70" value="" style="shape=tableRow;horizontal=0;startSize=0;swimlaneHead=0;swimlaneBody=0;strokeColor=#000000;top=0;left=0;bottom=0;right=0;collapsible=0;dropTarget=0;fillColor=inherit;points=[[0,0.5],[1,0.5]];portConstraint=eastwest;fontSize=16;fontColor=#000000;sketch=1;hachureGap=4;jiggle=2;curveFitting=1;fontFamily=Architects Daughter;fontSource=https%3A%2F%2Ffonts.googleapis.com%2Fcss%3Ffamily%3DArchitects%2BDaughter;" parent="yWVErNZN91S-6EF0SYBx-69" vertex="1">
          <mxGeometry y="30" width="310" height="25" as="geometry" />
        </mxCell>
        <mxCell id="yWVErNZN91S-6EF0SYBx-71" value="..." style="html=1;whiteSpace=wrap;connectable=0;strokeColor=#000000;overflow=hidden;fillColor=none;pointerEvents=1;fontColor=#000000;fontStyle=1;sketch=1;hachureGap=4;jiggle=2;curveFitting=1;fontFamily=Architects Daughter;fontSource=https%3A%2F%2Ffonts.googleapis.com%2Fcss%3Ffamily%3DArchitects%2BDaughter;fontSize=16;" parent="yWVErNZN91S-6EF0SYBx-70" vertex="1">
          <mxGeometry width="103" height="25" as="geometry">
            <mxRectangle width="103" height="25" as="alternateBounds" />
          </mxGeometry>
        </mxCell>
        <mxCell id="yWVErNZN91S-6EF0SYBx-72" value="..." style="html=1;whiteSpace=wrap;connectable=0;strokeColor=#000000;overflow=hidden;fillColor=none;pointerEvents=1;fontColor=#000000;fontStyle=1;sketch=1;hachureGap=4;jiggle=2;curveFitting=1;fontFamily=Architects Daughter;fontSource=https%3A%2F%2Ffonts.googleapis.com%2Fcss%3Ffamily%3DArchitects%2BDaughter;fontSize=16;" parent="yWVErNZN91S-6EF0SYBx-70" vertex="1">
          <mxGeometry x="103" width="207" height="25" as="geometry">
            <mxRectangle width="207" height="25" as="alternateBounds" />
          </mxGeometry>
        </mxCell>
        <mxCell id="yWVErNZN91S-6EF0SYBx-73" value="" style="shape=tableRow;horizontal=0;startSize=0;swimlaneHead=0;swimlaneBody=0;strokeColor=#000000;top=0;left=0;bottom=0;right=0;collapsible=0;dropTarget=0;fillColor=none;points=[[0,0.5],[1,0.5]];portConstraint=eastwest;fontSize=16;fontColor=#000000;sketch=1;hachureGap=4;jiggle=2;curveFitting=1;fontFamily=Architects Daughter;fontSource=https%3A%2F%2Ffonts.googleapis.com%2Fcss%3Ffamily%3DArchitects%2BDaughter;" parent="yWVErNZN91S-6EF0SYBx-69" vertex="1">
          <mxGeometry y="55" width="310" height="25" as="geometry" />
        </mxCell>
        <mxCell id="yWVErNZN91S-6EF0SYBx-74" value="" style="html=1;whiteSpace=wrap;connectable=0;strokeColor=#000000;overflow=hidden;fillColor=none;pointerEvents=1;fontColor=#000000;fontStyle=1;sketch=1;hachureGap=4;jiggle=2;curveFitting=1;fontFamily=Architects Daughter;fontSource=https%3A%2F%2Ffonts.googleapis.com%2Fcss%3Ffamily%3DArchitects%2BDaughter;fontSize=16;" parent="yWVErNZN91S-6EF0SYBx-73" vertex="1">
          <mxGeometry width="103" height="25" as="geometry">
            <mxRectangle width="103" height="25" as="alternateBounds" />
          </mxGeometry>
        </mxCell>
        <mxCell id="yWVErNZN91S-6EF0SYBx-75" value="" style="html=1;whiteSpace=wrap;connectable=0;strokeColor=#000000;overflow=hidden;fillColor=none;pointerEvents=1;fontColor=#000000;fontStyle=1;sketch=1;hachureGap=4;jiggle=2;curveFitting=1;fontFamily=Architects Daughter;fontSource=https%3A%2F%2Ffonts.googleapis.com%2Fcss%3Ffamily%3DArchitects%2BDaughter;fontSize=16;" parent="yWVErNZN91S-6EF0SYBx-73" vertex="1">
          <mxGeometry x="103" width="207" height="25" as="geometry">
            <mxRectangle width="207" height="25" as="alternateBounds" />
          </mxGeometry>
        </mxCell>
        <mxCell id="yWVErNZN91S-6EF0SYBx-77" value="" style="fontColor=#0066CC;verticalAlign=top;verticalLabelPosition=bottom;labelPosition=center;align=center;html=1;outlineConnect=0;fillColor=#000000;strokeColor=#000000;gradientColor=none;gradientDirection=north;strokeWidth=2;shape=mxgraph.networks.wireless_hub;sketch=1;hachureGap=4;jiggle=2;curveFitting=1;fontFamily=Architects Daughter;fontSource=https%3A%2F%2Ffonts.googleapis.com%2Fcss%3Ffamily%3DArchitects%2BDaughter;fontSize=16;" parent="1" vertex="1">
          <mxGeometry x="480" y="670" width="70" height="62" as="geometry" />
        </mxCell>
        <mxCell id="yWVErNZN91S-6EF0SYBx-85" value="" style="endArrow=none;html=1;rounded=0;sketch=1;hachureGap=4;jiggle=2;curveFitting=1;fontFamily=Architects Daughter;fontSource=https%3A%2F%2Ffonts.googleapis.com%2Fcss%3Ffamily%3DArchitects%2BDaughter;fontSize=16;" parent="1" edge="1">
          <mxGeometry width="50" height="50" relative="1" as="geometry">
            <mxPoint x="450" y="170" as="sourcePoint" />
            <mxPoint x="1090" y="170" as="targetPoint" />
          </mxGeometry>
        </mxCell>
        <mxCell id="yWVErNZN91S-6EF0SYBx-86" value="" style="endArrow=none;html=1;rounded=0;sketch=1;hachureGap=4;jiggle=2;curveFitting=1;fontFamily=Architects Daughter;fontSource=https%3A%2F%2Ffonts.googleapis.com%2Fcss%3Ffamily%3DArchitects%2BDaughter;fontSize=16;" parent="1" edge="1">
          <mxGeometry width="50" height="50" relative="1" as="geometry">
            <mxPoint x="440" y="260" as="sourcePoint" />
            <mxPoint x="1100" y="260" as="targetPoint" />
          </mxGeometry>
        </mxCell>
        <mxCell id="yWVErNZN91S-6EF0SYBx-110" value="" style="endArrow=classic;html=1;rounded=0;sketch=1;hachureGap=4;jiggle=2;curveFitting=1;fontFamily=Architects Daughter;fontSource=https%3A%2F%2Ffonts.googleapis.com%2Fcss%3Ffamily%3DArchitects%2BDaughter;fontSize=16;entryX=1;entryY=0.7;entryDx=0;entryDy=0;entryPerimeter=0;" parent="1" source="yWVErNZN91S-6EF0SYBx-8" target="yWVErNZN91S-6EF0SYBx-77" edge="1">
          <mxGeometry relative="1" as="geometry">
            <mxPoint x="470" y="530" as="sourcePoint" />
            <mxPoint x="570" y="530" as="targetPoint" />
            <Array as="points">
              <mxPoint x="550" y="430" />
            </Array>
          </mxGeometry>
        </mxCell>
        <mxCell id="yWVErNZN91S-6EF0SYBx-111" value="" style="shape=message;html=1;outlineConnect=0;sketch=1;hachureGap=4;jiggle=2;curveFitting=1;strokeColor=#000000;fontFamily=Architects Daughter;fontSource=https%3A%2F%2Ffonts.googleapis.com%2Fcss%3Ffamily%3DArchitects%2BDaughter;fontSize=16;fillColor=none;gradientColor=none;" parent="yWVErNZN91S-6EF0SYBx-110" vertex="1">
          <mxGeometry width="20" height="14" relative="1" as="geometry">
            <mxPoint x="-10" y="43" as="offset" />
          </mxGeometry>
        </mxCell>
        <mxCell id="yWVErNZN91S-6EF0SYBx-136" value="stream" style="edgeLabel;html=1;align=center;verticalAlign=middle;resizable=0;points=[];fontSize=16;fontFamily=Architects Daughter;rotation=-90;" parent="yWVErNZN91S-6EF0SYBx-110" vertex="1" connectable="0">
          <mxGeometry x="-0.2944" y="4" relative="1" as="geometry">
            <mxPoint x="-14" y="9" as="offset" />
          </mxGeometry>
        </mxCell>
        <mxCell id="yWVErNZN91S-6EF0SYBx-112" value="" style="shape=mxgraph.signs.transportation.car_2;html=1;pointerEvents=1;fillColor=#000000;strokeColor=default;verticalLabelPosition=bottom;verticalAlign=top;align=center;sketch=1;hachureGap=4;jiggle=2;curveFitting=1;fontFamily=Architects Daughter;fontSource=https%3A%2F%2Ffonts.googleapis.com%2Fcss%3Ffamily%3DArchitects%2BDaughter;fontSize=16;rotation=0;" parent="1" vertex="1">
          <mxGeometry x="920" y="208" width="100" height="33" as="geometry" />
        </mxCell>
        <mxCell id="yWVErNZN91S-6EF0SYBx-114" value="" style="shape=mxgraph.signs.transportation.car_3;html=1;pointerEvents=1;fillColor=#000000;strokeColor=default;verticalLabelPosition=bottom;verticalAlign=top;align=center;sketch=1;hachureGap=4;jiggle=2;curveFitting=1;fontFamily=Architects Daughter;fontSource=https%3A%2F%2Ffonts.googleapis.com%2Fcss%3Ffamily%3DArchitects%2BDaughter;fontSize=16;gradientColor=none;rotation=0;" parent="1" vertex="1">
          <mxGeometry x="780" y="203" width="99" height="38" as="geometry" />
        </mxCell>
        <mxCell id="yWVErNZN91S-6EF0SYBx-116" value="" style="shape=mxgraph.signs.transportation.truck_1;html=1;pointerEvents=1;fillColor=#000000;strokeColor=default;verticalLabelPosition=bottom;verticalAlign=top;align=center;sketch=1;hachureGap=4;jiggle=2;curveFitting=1;fontFamily=Architects Daughter;fontSource=https%3A%2F%2Ffonts.googleapis.com%2Fcss%3Ffamily%3DArchitects%2BDaughter;fontSize=16;rotation=0;" parent="1" vertex="1">
          <mxGeometry x="650" y="190" width="99" height="51" as="geometry" />
        </mxCell>
        <mxCell id="yWVErNZN91S-6EF0SYBx-117" value="" style="shape=mxgraph.signs.transportation.truck_5;html=1;pointerEvents=1;fillColor=#000000;strokeColor=default;verticalLabelPosition=bottom;verticalAlign=top;align=center;sketch=1;hachureGap=4;jiggle=2;curveFitting=1;fontFamily=Architects Daughter;fontSource=https%3A%2F%2Ffonts.googleapis.com%2Fcss%3Ffamily%3DArchitects%2BDaughter;fontSize=16;rotation=0;" parent="1" vertex="1">
          <mxGeometry x="490" y="211" width="139" height="27" as="geometry" />
        </mxCell>
        <mxCell id="yWVErNZN91S-6EF0SYBx-123" value="" style="shape=image;html=1;verticalAlign=top;verticalLabelPosition=bottom;labelBackgroundColor=#ffffff;imageAspect=0;aspect=fixed;image=https://cdn1.iconfinder.com/data/icons/bootstrap-vol-3/16/outlet-128.png;sketch=1;hachureGap=4;jiggle=2;curveFitting=1;strokeColor=#030303;fontFamily=Architects Daughter;fontSource=https%3A%2F%2Ffonts.googleapis.com%2Fcss%3Ffamily%3DArchitects%2BDaughter;fontSize=16;fillColor=#FFFFFF;gradientColor=none;rotation=0;" parent="1" vertex="1">
          <mxGeometry x="432" y="652" width="18" height="18" as="geometry" />
        </mxCell>
        <mxCell id="yWVErNZN91S-6EF0SYBx-124" value="" style="shape=wire;edgeStyle=orthogonalEdgeStyle;orthogonalLoop=1;jettySize=auto;html=1;sourcePerimeterSpacing=0;targetPerimeterSpacing=0;endArrow=none;curved=0;rounded=0;strokeColor=#000000;dashed=1;fillColor=#007FFF;dashPattern=12 12;fixDash=1;startSize=6;endSize=6;sketch=1;hachureGap=4;jiggle=2;curveFitting=1;fontFamily=Architects Daughter;fontSource=https%3A%2F%2Ffonts.googleapis.com%2Fcss%3Ffamily%3DArchitects%2BDaughter;fontSize=16;exitX=0;exitY=0.5;exitDx=0;exitDy=0;" parent="1" source="yWVErNZN91S-6EF0SYBx-123" target="yWVErNZN91S-6EF0SYBx-77" edge="1">
          <mxGeometry width="100" relative="1" as="geometry">
            <mxPoint x="370" y="730" as="sourcePoint" />
            <mxPoint x="470" y="730" as="targetPoint" />
            <Array as="points">
              <mxPoint x="420" y="661" />
              <mxPoint x="420" y="720" />
            </Array>
          </mxGeometry>
        </mxCell>
        <mxCell id="yWVErNZN91S-6EF0SYBx-127" value="" style="fontColor=#0066CC;verticalAlign=top;verticalLabelPosition=bottom;labelPosition=center;align=center;html=1;outlineConnect=0;fillColor=#CCCCCC;strokeColor=#030303;gradientColor=none;gradientDirection=north;strokeWidth=2;shape=mxgraph.networks.virtual_pc;sketch=1;hachureGap=4;jiggle=2;curveFitting=1;fontFamily=Architects Daughter;fontSource=https%3A%2F%2Ffonts.googleapis.com%2Fcss%3Ffamily%3DArchitects%2BDaughter;fontSize=16;" parent="1" vertex="1">
          <mxGeometry x="230" y="392.5" width="115" height="85" as="geometry" />
        </mxCell>
        <mxCell id="yWVErNZN91S-6EF0SYBx-130" value="" style="shape=note;size=20;whiteSpace=wrap;html=1;sketch=1;hachureGap=4;jiggle=2;curveFitting=1;strokeColor=#030303;fontFamily=Architects Daughter;fontSource=https%3A%2F%2Ffonts.googleapis.com%2Fcss%3Ffamily%3DArchitects%2BDaughter;fontSize=16;fillColor=none;gradientColor=none;align=left;" parent="1" vertex="1">
          <mxGeometry y="550" width="200" height="240" as="geometry" />
        </mxCell>
        <mxCell id="yWVErNZN91S-6EF0SYBx-132" value="" style="endArrow=none;html=1;rounded=0;sketch=1;hachureGap=4;jiggle=2;curveFitting=1;strokeColor=#000000;fontFamily=Architects Daughter;fontSource=https%3A%2F%2Ffonts.googleapis.com%2Fcss%3Ffamily%3DArchitects%2BDaughter;fontSize=16;fillColor=#007FFF;exitX=0;exitY=0;exitDx=0;exitDy=0;exitPerimeter=0;entryX=0.763;entryY=1.012;entryDx=0;entryDy=0;entryPerimeter=0;" parent="1" source="yWVErNZN91S-6EF0SYBx-130" target="yWVErNZN91S-6EF0SYBx-37" edge="1">
          <mxGeometry width="50" height="50" relative="1" as="geometry">
            <mxPoint x="70" y="540" as="sourcePoint" />
            <mxPoint x="120" y="490" as="targetPoint" />
          </mxGeometry>
        </mxCell>
        <mxCell id="yWVErNZN91S-6EF0SYBx-133" value="" style="endArrow=none;html=1;rounded=0;sketch=1;hachureGap=4;jiggle=2;curveFitting=1;strokeColor=#000000;fontFamily=Architects Daughter;fontSource=https%3A%2F%2Ffonts.googleapis.com%2Fcss%3Ffamily%3DArchitects%2BDaughter;fontSize=16;fillColor=#007FFF;exitX=1.001;exitY=0.228;exitDx=0;exitDy=0;exitPerimeter=0;" parent="1" source="yWVErNZN91S-6EF0SYBx-130" edge="1">
          <mxGeometry width="50" height="50" relative="1" as="geometry">
            <mxPoint x="40" y="510" as="sourcePoint" />
            <mxPoint x="210" y="490" as="targetPoint" />
          </mxGeometry>
        </mxCell>
        <mxCell id="yWVErNZN91S-6EF0SYBx-134" value="External Camera" style="text;html=1;strokeColor=none;fillColor=none;align=center;verticalAlign=middle;whiteSpace=wrap;rounded=0;fontSize=16;fontFamily=Architects Daughter;" parent="1" vertex="1">
          <mxGeometry x="690" y="440" width="140" height="20" as="geometry" />
        </mxCell>
        <mxCell id="yWVErNZN91S-6EF0SYBx-140" value="Users&#39; devices" style="text;html=1;align=center;verticalAlign=middle;resizable=0;points=[];autosize=1;strokeColor=none;fillColor=none;fontSize=20;fontFamily=Architects Daughter;" parent="1" vertex="1">
          <mxGeometry x="170" y="340" width="160" height="40" as="geometry" />
        </mxCell>
        <mxCell id="yWVErNZN91S-6EF0SYBx-141" value="Incoming Traffic" style="text;html=1;align=center;verticalAlign=middle;resizable=0;points=[];autosize=1;strokeColor=none;fillColor=none;fontSize=20;fontFamily=Architects Daughter;" parent="1" vertex="1">
          <mxGeometry x="660" y="120" width="180" height="40" as="geometry" />
        </mxCell>
        <mxCell id="yWVErNZN91S-6EF0SYBx-142" value="" style="html=1;verticalLabelPosition=bottom;align=center;labelBackgroundColor=#ffffff;verticalAlign=top;strokeWidth=2;strokeColor=#000000;shadow=0;dashed=0;shape=mxgraph.ios7.icons.home;sketch=1;hachureGap=4;jiggle=2;curveFitting=1;fontFamily=Architects Daughter;fontSource=https%3A%2F%2Ffonts.googleapis.com%2Fcss%3Ffamily%3DArchitects%2BDaughter;fontSize=16;fillColor=none;gradientColor=none;" parent="1" vertex="1">
          <mxGeometry x="1300" y="30" width="200" height="160" as="geometry" />
        </mxCell>
        <mxCell id="yWVErNZN91S-6EF0SYBx-143" value="" style="shape=mxgraph.signs.tech.camera_1;html=1;pointerEvents=1;fillColor=#000000;strokeColor=default;verticalLabelPosition=bottom;verticalAlign=top;align=center;sketch=1;hachureGap=4;jiggle=2;curveFitting=1;fontFamily=Architects Daughter;fontSource=https%3A%2F%2Ffonts.googleapis.com%2Fcss%3Ffamily%3DArchitects%2BDaughter;fontSize=16;rotation=-180;" parent="1" vertex="1">
          <mxGeometry x="1290" y="50" width="48" height="30" as="geometry" />
        </mxCell>
        <mxCell id="yWVErNZN91S-6EF0SYBx-145" value="" style="fontColor=#0066CC;verticalAlign=top;verticalLabelPosition=bottom;labelPosition=center;align=center;html=1;outlineConnect=0;fillColor=#000000;strokeColor=#000000;gradientColor=none;gradientDirection=north;strokeWidth=2;shape=mxgraph.networks.wireless_hub;sketch=1;hachureGap=4;jiggle=2;curveFitting=1;fontFamily=Architects Daughter;fontSource=https%3A%2F%2Ffonts.googleapis.com%2Fcss%3Ffamily%3DArchitects%2BDaughter;fontSize=16;" parent="1" vertex="1">
          <mxGeometry x="1380" y="70" width="70" height="62" as="geometry" />
        </mxCell>
        <mxCell id="yWVErNZN91S-6EF0SYBx-149" value="" style="endArrow=classic;html=1;rounded=0;sketch=1;hachureGap=4;jiggle=2;curveFitting=1;fontFamily=Architects Daughter;fontSource=https%3A%2F%2Ffonts.googleapis.com%2Fcss%3Ffamily%3DArchitects%2BDaughter;fontSize=16;entryX=0;entryY=0.7;entryDx=0;entryDy=0;entryPerimeter=0;exitX=0.5;exitY=0;exitDx=0;exitDy=0;exitPerimeter=0;" parent="1" source="yWVErNZN91S-6EF0SYBx-143" target="yWVErNZN91S-6EF0SYBx-145" edge="1">
          <mxGeometry relative="1" as="geometry">
            <mxPoint x="1380" y="244.5" as="sourcePoint" />
            <mxPoint x="1273" y="527.5" as="targetPoint" />
            <Array as="points">
              <mxPoint x="1380" y="80" />
            </Array>
          </mxGeometry>
        </mxCell>
        <mxCell id="yWVErNZN91S-6EF0SYBx-150" value="" style="shape=message;html=1;outlineConnect=0;sketch=1;hachureGap=4;jiggle=2;curveFitting=1;strokeColor=#000000;fontFamily=Architects Daughter;fontSource=https%3A%2F%2Ffonts.googleapis.com%2Fcss%3Ffamily%3DArchitects%2BDaughter;fontSize=16;fillColor=none;gradientColor=none;rotation=-45;" parent="yWVErNZN91S-6EF0SYBx-149" vertex="1">
          <mxGeometry width="20" height="14" relative="1" as="geometry">
            <mxPoint x="6" y="-10" as="offset" />
          </mxGeometry>
        </mxCell>
        <mxCell id="yWVErNZN91S-6EF0SYBx-153" value="" style="endArrow=classic;html=1;rounded=0;sketch=1;hachureGap=4;jiggle=2;curveFitting=1;fontFamily=Architects Daughter;fontSource=https%3A%2F%2Ffonts.googleapis.com%2Fcss%3Ffamily%3DArchitects%2BDaughter;fontSize=16;exitX=0.5;exitY=1;exitDx=0;exitDy=0;exitPerimeter=0;entryX=0.875;entryY=0.5;entryDx=0;entryDy=0;entryPerimeter=0;" parent="1" source="yWVErNZN91S-6EF0SYBx-145" target="yWVErNZN91S-6EF0SYBx-26" edge="1">
          <mxGeometry relative="1" as="geometry">
            <mxPoint x="850" y="650" as="sourcePoint" />
            <mxPoint x="810" y="800" as="targetPoint" />
            <Array as="points">
              <mxPoint x="1415" y="250" />
              <mxPoint x="1240" y="250" />
              <mxPoint x="1240" y="470" />
              <mxPoint x="1240" y="973" />
            </Array>
          </mxGeometry>
        </mxCell>
        <mxCell id="yWVErNZN91S-6EF0SYBx-154" value="" style="shape=message;html=1;outlineConnect=0;sketch=1;hachureGap=4;jiggle=2;curveFitting=1;strokeColor=#000000;fontFamily=Architects Daughter;fontSource=https%3A%2F%2Ffonts.googleapis.com%2Fcss%3Ffamily%3DArchitects%2BDaughter;fontSize=20;fillColor=none;gradientColor=none;" parent="yWVErNZN91S-6EF0SYBx-153" vertex="1">
          <mxGeometry width="20" height="14" relative="1" as="geometry">
            <mxPoint x="-10" y="-317" as="offset" />
          </mxGeometry>
        </mxCell>
        <mxCell id="yWVErNZN91S-6EF0SYBx-188" style="edgeStyle=orthogonalEdgeStyle;rounded=0;sketch=1;hachureGap=4;jiggle=2;curveFitting=1;orthogonalLoop=1;jettySize=auto;html=1;entryX=0.875;entryY=0.5;entryDx=0;entryDy=0;entryPerimeter=0;strokeColor=#000000;fontFamily=Architects Daughter;fontSource=https%3A%2F%2Ffonts.googleapis.com%2Fcss%3Ffamily%3DArchitects%2BDaughter;fontSize=16;fillColor=#007FFF;" parent="1" source="yWVErNZN91S-6EF0SYBx-176" target="yWVErNZN91S-6EF0SYBx-26" edge="1">
          <mxGeometry relative="1" as="geometry">
            <Array as="points">
              <mxPoint x="1400" y="530" />
              <mxPoint x="1240" y="530" />
              <mxPoint x="1240" y="973" />
            </Array>
          </mxGeometry>
        </mxCell>
        <mxCell id="yWVErNZN91S-6EF0SYBx-176" value="" style="html=1;verticalLabelPosition=bottom;align=center;labelBackgroundColor=#ffffff;verticalAlign=top;strokeWidth=2;strokeColor=#000000;shadow=0;dashed=0;shape=mxgraph.ios7.icons.home;sketch=1;hachureGap=4;jiggle=2;curveFitting=1;fontFamily=Architects Daughter;fontSource=https%3A%2F%2Ffonts.googleapis.com%2Fcss%3Ffamily%3DArchitects%2BDaughter;fontSize=16;fillColor=none;gradientColor=none;" parent="1" vertex="1">
          <mxGeometry x="1300" y="300" width="200" height="160" as="geometry" />
        </mxCell>
        <mxCell id="yWVErNZN91S-6EF0SYBx-177" value="" style="shape=mxgraph.signs.tech.camera_1;html=1;pointerEvents=1;fillColor=#000000;strokeColor=default;verticalLabelPosition=bottom;verticalAlign=top;align=center;sketch=1;hachureGap=4;jiggle=2;curveFitting=1;fontFamily=Architects Daughter;fontSource=https%3A%2F%2Ffonts.googleapis.com%2Fcss%3Ffamily%3DArchitects%2BDaughter;fontSize=16;rotation=-180;" parent="1" vertex="1">
          <mxGeometry x="1290" y="320" width="48" height="30" as="geometry" />
        </mxCell>
        <mxCell id="yWVErNZN91S-6EF0SYBx-178" value="" style="fontColor=#0066CC;verticalAlign=top;verticalLabelPosition=bottom;labelPosition=center;align=center;html=1;outlineConnect=0;fillColor=#000000;strokeColor=#000000;gradientColor=none;gradientDirection=north;strokeWidth=2;shape=mxgraph.networks.wireless_hub;sketch=1;hachureGap=4;jiggle=2;curveFitting=1;fontFamily=Architects Daughter;fontSource=https%3A%2F%2Ffonts.googleapis.com%2Fcss%3Ffamily%3DArchitects%2BDaughter;fontSize=16;" parent="1" vertex="1">
          <mxGeometry x="1380" y="340" width="70" height="62" as="geometry" />
        </mxCell>
        <mxCell id="yWVErNZN91S-6EF0SYBx-179" value="" style="endArrow=classic;html=1;rounded=0;sketch=1;hachureGap=4;jiggle=2;curveFitting=1;fontFamily=Architects Daughter;fontSource=https%3A%2F%2Ffonts.googleapis.com%2Fcss%3Ffamily%3DArchitects%2BDaughter;fontSize=16;entryX=0;entryY=0.7;entryDx=0;entryDy=0;entryPerimeter=0;exitX=0.5;exitY=0;exitDx=0;exitDy=0;exitPerimeter=0;" parent="1" source="yWVErNZN91S-6EF0SYBx-177" target="yWVErNZN91S-6EF0SYBx-178" edge="1">
          <mxGeometry relative="1" as="geometry">
            <mxPoint x="1380" y="514.5" as="sourcePoint" />
            <mxPoint x="1273" y="797.5" as="targetPoint" />
            <Array as="points">
              <mxPoint x="1380" y="350" />
            </Array>
          </mxGeometry>
        </mxCell>
        <mxCell id="yWVErNZN91S-6EF0SYBx-180" value="" style="shape=message;html=1;outlineConnect=0;sketch=1;hachureGap=4;jiggle=2;curveFitting=1;strokeColor=#000000;fontFamily=Architects Daughter;fontSource=https%3A%2F%2Ffonts.googleapis.com%2Fcss%3Ffamily%3DArchitects%2BDaughter;fontSize=16;fillColor=none;gradientColor=none;rotation=-45;" parent="yWVErNZN91S-6EF0SYBx-179" vertex="1">
          <mxGeometry width="20" height="14" relative="1" as="geometry">
            <mxPoint x="6" y="-10" as="offset" />
          </mxGeometry>
        </mxCell>
        <mxCell id="yWVErNZN91S-6EF0SYBx-181" value="" style="html=1;verticalLabelPosition=bottom;align=center;labelBackgroundColor=#ffffff;verticalAlign=top;strokeWidth=2;strokeColor=#000000;shadow=0;dashed=0;shape=mxgraph.ios7.icons.home;sketch=1;hachureGap=4;jiggle=2;curveFitting=1;fontFamily=Architects Daughter;fontSource=https%3A%2F%2Ffonts.googleapis.com%2Fcss%3Ffamily%3DArchitects%2BDaughter;fontSize=16;fillColor=none;gradientColor=none;" parent="1" vertex="1">
          <mxGeometry x="1300" y="560" width="200" height="160" as="geometry" />
        </mxCell>
        <mxCell id="yWVErNZN91S-6EF0SYBx-182" value="" style="shape=mxgraph.signs.tech.camera_1;html=1;pointerEvents=1;fillColor=#000000;strokeColor=default;verticalLabelPosition=bottom;verticalAlign=top;align=center;sketch=1;hachureGap=4;jiggle=2;curveFitting=1;fontFamily=Architects Daughter;fontSource=https%3A%2F%2Ffonts.googleapis.com%2Fcss%3Ffamily%3DArchitects%2BDaughter;fontSize=16;rotation=-180;" parent="1" vertex="1">
          <mxGeometry x="1290" y="580" width="48" height="30" as="geometry" />
        </mxCell>
        <mxCell id="yWVErNZN91S-6EF0SYBx-183" value="" style="fontColor=#0066CC;verticalAlign=top;verticalLabelPosition=bottom;labelPosition=center;align=center;html=1;outlineConnect=0;fillColor=#000000;strokeColor=#000000;gradientColor=none;gradientDirection=north;strokeWidth=2;shape=mxgraph.networks.wireless_hub;sketch=1;hachureGap=4;jiggle=2;curveFitting=1;fontFamily=Architects Daughter;fontSource=https%3A%2F%2Ffonts.googleapis.com%2Fcss%3Ffamily%3DArchitects%2BDaughter;fontSize=16;" parent="1" vertex="1">
          <mxGeometry x="1380" y="600" width="70" height="62" as="geometry" />
        </mxCell>
        <mxCell id="yWVErNZN91S-6EF0SYBx-184" value="" style="endArrow=classic;html=1;rounded=0;sketch=1;hachureGap=4;jiggle=2;curveFitting=1;fontFamily=Architects Daughter;fontSource=https%3A%2F%2Ffonts.googleapis.com%2Fcss%3Ffamily%3DArchitects%2BDaughter;fontSize=16;entryX=0;entryY=0.7;entryDx=0;entryDy=0;entryPerimeter=0;exitX=0.5;exitY=0;exitDx=0;exitDy=0;exitPerimeter=0;" parent="1" source="yWVErNZN91S-6EF0SYBx-182" target="yWVErNZN91S-6EF0SYBx-183" edge="1">
          <mxGeometry relative="1" as="geometry">
            <mxPoint x="1380" y="774.5" as="sourcePoint" />
            <mxPoint x="1273" y="1057.5" as="targetPoint" />
            <Array as="points">
              <mxPoint x="1380" y="610" />
            </Array>
          </mxGeometry>
        </mxCell>
        <mxCell id="yWVErNZN91S-6EF0SYBx-185" value="" style="shape=message;html=1;outlineConnect=0;sketch=1;hachureGap=4;jiggle=2;curveFitting=1;strokeColor=#000000;fontFamily=Architects Daughter;fontSource=https%3A%2F%2Ffonts.googleapis.com%2Fcss%3Ffamily%3DArchitects%2BDaughter;fontSize=16;fillColor=none;gradientColor=none;rotation=-45;" parent="yWVErNZN91S-6EF0SYBx-184" vertex="1">
          <mxGeometry width="20" height="14" relative="1" as="geometry">
            <mxPoint x="6" y="-10" as="offset" />
          </mxGeometry>
        </mxCell>
        <mxCell id="yWVErNZN91S-6EF0SYBx-189" value="" style="shape=message;html=1;outlineConnect=0;sketch=1;hachureGap=4;jiggle=2;curveFitting=1;strokeColor=#000000;fontFamily=Architects Daughter;fontSource=https%3A%2F%2Ffonts.googleapis.com%2Fcss%3Ffamily%3DArchitects%2BDaughter;fontSize=20;fillColor=none;gradientColor=none;" parent="1" vertex="1">
          <mxGeometry x="1390" y="490.0010526315787" width="20" height="14" as="geometry" />
        </mxCell>
        <mxCell id="yWVErNZN91S-6EF0SYBx-192" style="edgeStyle=orthogonalEdgeStyle;rounded=0;sketch=1;hachureGap=4;jiggle=2;curveFitting=1;orthogonalLoop=1;jettySize=auto;html=1;entryX=0.875;entryY=0.5;entryDx=0;entryDy=0;entryPerimeter=0;strokeColor=#000000;fontFamily=Architects Daughter;fontSource=https%3A%2F%2Ffonts.googleapis.com%2Fcss%3Ffamily%3DArchitects%2BDaughter;fontSize=16;fillColor=#007FFF;" parent="1" source="yWVErNZN91S-6EF0SYBx-183" target="yWVErNZN91S-6EF0SYBx-26" edge="1">
          <mxGeometry relative="1" as="geometry">
            <mxPoint x="1430" y="770" as="sourcePoint" />
            <mxPoint x="790" y="1283" as="targetPoint" />
            <Array as="points">
              <mxPoint x="1430" y="973" />
            </Array>
          </mxGeometry>
        </mxCell>
        <mxCell id="yWVErNZN91S-6EF0SYBx-193" value="" style="shape=message;html=1;outlineConnect=0;sketch=1;hachureGap=4;jiggle=2;curveFitting=1;strokeColor=#000000;fontFamily=Architects Daughter;fontSource=https%3A%2F%2Ffonts.googleapis.com%2Fcss%3Ffamily%3DArchitects%2BDaughter;fontSize=20;fillColor=none;gradientColor=none;" parent="1" vertex="1">
          <mxGeometry x="1420" y="820.0010526315787" width="20" height="14" as="geometry" />
        </mxCell>
        <mxCell id="yWVErNZN91S-6EF0SYBx-194" value="Cloud&lt;br&gt;Storage" style="text;html=1;align=center;verticalAlign=middle;resizable=0;points=[];autosize=1;strokeColor=none;fillColor=none;fontSize=20;fontFamily=Architects Daughter;" parent="1" vertex="1">
          <mxGeometry x="565" y="933" width="100" height="60" as="geometry" />
        </mxCell>
        <mxCell id="6Lv1y3OCeT_dJhG8CFiY-1" value="&lt;font style=&quot;font-size: 16px;&quot; data-font-src=&quot;https://fonts.googleapis.com/css?family=Architects+Daughter&quot; face=&quot;Architects Daughter&quot;&gt;Additional Community Members&lt;/font&gt;" style="rounded=0;whiteSpace=wrap;html=1;sketch=1;" vertex="1" parent="1">
          <mxGeometry x="1540" y="520" width="200" height="70" as="geometry" />
        </mxCell>
        <mxCell id="6Lv1y3OCeT_dJhG8CFiY-2" value="Traffic Data WebApp" style="text;html=1;align=center;verticalAlign=middle;resizable=0;points=[];autosize=1;strokeColor=none;fillColor=none;fontSize=16;fontFamily=Architects Daughter;" vertex="1" parent="1">
          <mxGeometry x="27" y="520" width="190" height="30" as="geometry" />
        </mxCell>
        <mxCell id="6Lv1y3OCeT_dJhG8CFiY-4" value="" style="whiteSpace=wrap;html=1;aspect=fixed;sketch=1;fontFamily=Architects Daughter;fontSource=https%3A%2F%2Ffonts.googleapis.com%2Fcss%3Ffamily%3DArchitects%2BDaughter;fontSize=16;" vertex="1" parent="1">
          <mxGeometry x="-200" y="850" width="190" height="190" as="geometry" />
        </mxCell>
        <mxCell id="6Lv1y3OCeT_dJhG8CFiY-6" value="" style="shape=curlyBracket;whiteSpace=wrap;html=1;rounded=1;flipH=1;sketch=1;fontFamily=Architects Daughter;fontSource=https%3A%2F%2Ffonts.googleapis.com%2Fcss%3Ffamily%3DArchitects%2BDaughter;fontSize=16;" vertex="1" parent="1">
          <mxGeometry x="1520" y="130" width="20" height="840" as="geometry" />
        </mxCell>
        <mxCell id="6Lv1y3OCeT_dJhG8CFiY-33" value="" style="fillColor=#10739E;strokeColor=none;sketch=1;fontFamily=Architects Daughter;fontSource=https%3A%2F%2Ffonts.googleapis.com%2Fcss%3Ffamily%3DArchitects%2BDaughter;fontSize=16;" vertex="1" parent="1">
          <mxGeometry x="-190" y="930" width="30" height="100" as="geometry" />
        </mxCell>
        <mxCell id="6Lv1y3OCeT_dJhG8CFiY-34" value="" style="shape=mxgraph.arrows2.arrow;dy=0.4;dx=16;notch=0;direction=north;fillColor=#1699D3;strokeColor=none;sketch=1;fontFamily=Architects Daughter;fontSource=https%3A%2F%2Ffonts.googleapis.com%2Fcss%3Ffamily%3DArchitects%2BDaughter;fontSize=16;" vertex="1" parent="6Lv1y3OCeT_dJhG8CFiY-33">
          <mxGeometry x="3" y="30" width="24" height="70" as="geometry" />
        </mxCell>
        <mxCell id="6Lv1y3OCeT_dJhG8CFiY-35" value="Label" style="text;html=1;align=center;verticalAlign=middle;whiteSpace=wrap;fontColor=#FFFFFF;fontSize=10;strokeColor=none;fillColor=none;sketch=1;fontFamily=Architects Daughter;fontSource=https%3A%2F%2Ffonts.googleapis.com%2Fcss%3Ffamily%3DArchitects%2BDaughter;" vertex="1" parent="6Lv1y3OCeT_dJhG8CFiY-33">
          <mxGeometry width="30" height="20" as="geometry" />
        </mxCell>
        <mxCell id="6Lv1y3OCeT_dJhG8CFiY-36" value="" style="fillColor=#F2931E;strokeColor=none;sketch=1;fontFamily=Architects Daughter;fontSource=https%3A%2F%2Ffonts.googleapis.com%2Fcss%3Ffamily%3DArchitects%2BDaughter;fontSize=16;" vertex="1" parent="1">
          <mxGeometry x="-155" y="910" width="30" height="120" as="geometry" />
        </mxCell>
        <mxCell id="6Lv1y3OCeT_dJhG8CFiY-37" value="" style="shape=mxgraph.arrows2.arrow;dy=0.4;dx=16;notch=0;direction=south;fillColor=#F5AB50;strokeColor=none;sketch=1;fontFamily=Architects Daughter;fontSource=https%3A%2F%2Ffonts.googleapis.com%2Fcss%3Ffamily%3DArchitects%2BDaughter;fontSize=16;" vertex="1" parent="6Lv1y3OCeT_dJhG8CFiY-36">
          <mxGeometry x="3" width="24" height="80" as="geometry" />
        </mxCell>
        <mxCell id="6Lv1y3OCeT_dJhG8CFiY-38" value="Label" style="text;html=1;align=center;verticalAlign=middle;whiteSpace=wrap;fontColor=#FFFFFF;fontSize=10;strokeColor=none;fillColor=none;sketch=1;fontFamily=Architects Daughter;fontSource=https%3A%2F%2Ffonts.googleapis.com%2Fcss%3Ffamily%3DArchitects%2BDaughter;" vertex="1" parent="6Lv1y3OCeT_dJhG8CFiY-36">
          <mxGeometry width="30" height="20" as="geometry" />
        </mxCell>
        <mxCell id="6Lv1y3OCeT_dJhG8CFiY-39" value="" style="fillColor=#AE4132;strokeColor=none;sketch=1;fontFamily=Architects Daughter;fontSource=https%3A%2F%2Ffonts.googleapis.com%2Fcss%3Ffamily%3DArchitects%2BDaughter;fontSize=16;" vertex="1" parent="1">
          <mxGeometry x="-120" y="900" width="30" height="130" as="geometry" />
        </mxCell>
        <mxCell id="6Lv1y3OCeT_dJhG8CFiY-40" value="" style="shape=mxgraph.arrows2.arrow;dy=0.4;dx=16;notch=0;direction=north;fillColor=#E85642;strokeColor=none;sketch=1;fontFamily=Architects Daughter;fontSource=https%3A%2F%2Ffonts.googleapis.com%2Fcss%3Ffamily%3DArchitects%2BDaughter;fontSize=16;" vertex="1" parent="6Lv1y3OCeT_dJhG8CFiY-39">
          <mxGeometry x="3" y="80" width="24" height="50" as="geometry" />
        </mxCell>
        <mxCell id="6Lv1y3OCeT_dJhG8CFiY-41" value="Label" style="text;html=1;align=center;verticalAlign=middle;whiteSpace=wrap;fontColor=#FFFFFF;fontSize=10;strokeColor=none;fillColor=none;sketch=1;fontFamily=Architects Daughter;fontSource=https%3A%2F%2Ffonts.googleapis.com%2Fcss%3Ffamily%3DArchitects%2BDaughter;" vertex="1" parent="6Lv1y3OCeT_dJhG8CFiY-39">
          <mxGeometry width="30" height="20" as="geometry" />
        </mxCell>
        <mxCell id="6Lv1y3OCeT_dJhG8CFiY-42" value="" style="fillColor=#12AAB5;strokeColor=none;sketch=1;fontFamily=Architects Daughter;fontSource=https%3A%2F%2Ffonts.googleapis.com%2Fcss%3Ffamily%3DArchitects%2BDaughter;fontSize=16;" vertex="1" parent="1">
          <mxGeometry x="-85" y="950" width="30" height="80" as="geometry" />
        </mxCell>
        <mxCell id="6Lv1y3OCeT_dJhG8CFiY-43" value="" style="shape=mxgraph.arrows2.arrow;dy=0.4;dx=16;notch=0;direction=south;fillColor=#64BBE2;strokeColor=none;sketch=1;fontFamily=Architects Daughter;fontSource=https%3A%2F%2Ffonts.googleapis.com%2Fcss%3Ffamily%3DArchitects%2BDaughter;fontSize=16;" vertex="1" parent="6Lv1y3OCeT_dJhG8CFiY-42">
          <mxGeometry x="3" width="24" height="30" as="geometry" />
        </mxCell>
        <mxCell id="6Lv1y3OCeT_dJhG8CFiY-44" value="Label" style="text;html=1;align=center;verticalAlign=middle;whiteSpace=wrap;fontColor=#FFFFFF;fontSize=10;strokeColor=none;fillColor=none;sketch=1;fontFamily=Architects Daughter;fontSource=https%3A%2F%2Ffonts.googleapis.com%2Fcss%3Ffamily%3DArchitects%2BDaughter;" vertex="1" parent="6Lv1y3OCeT_dJhG8CFiY-42">
          <mxGeometry width="30" height="20" as="geometry" />
        </mxCell>
        <mxCell id="6Lv1y3OCeT_dJhG8CFiY-45" value="" style="fillColor=#23445D;strokeColor=none;sketch=1;fontFamily=Architects Daughter;fontSource=https%3A%2F%2Ffonts.googleapis.com%2Fcss%3Ffamily%3DArchitects%2BDaughter;fontSize=16;" vertex="1" parent="1">
          <mxGeometry x="-50" y="960" width="30" height="70" as="geometry" />
        </mxCell>
        <mxCell id="6Lv1y3OCeT_dJhG8CFiY-46" value="" style="shape=mxgraph.arrows2.arrow;dy=0.4;dx=16;notch=0;direction=north;fillColor=#2F5B7C;strokeColor=none;sketch=1;fontFamily=Architects Daughter;fontSource=https%3A%2F%2Ffonts.googleapis.com%2Fcss%3Ffamily%3DArchitects%2BDaughter;fontSize=16;" vertex="1" parent="6Lv1y3OCeT_dJhG8CFiY-45">
          <mxGeometry x="3" y="10" width="24" height="60" as="geometry" />
        </mxCell>
        <mxCell id="6Lv1y3OCeT_dJhG8CFiY-47" value="Label" style="text;html=1;align=center;verticalAlign=middle;whiteSpace=wrap;fontColor=#FFFFFF;fontSize=10;strokeColor=none;fillColor=none;sketch=1;fontFamily=Architects Daughter;fontSource=https%3A%2F%2Ffonts.googleapis.com%2Fcss%3Ffamily%3DArchitects%2BDaughter;" vertex="1" parent="6Lv1y3OCeT_dJhG8CFiY-45">
          <mxGeometry width="30" height="20" as="geometry" />
        </mxCell>
        <mxCell id="6Lv1y3OCeT_dJhG8CFiY-48" value="" style="endArrow=classic;html=1;rounded=0;fontFamily=Architects Daughter;fontSource=https%3A%2F%2Ffonts.googleapis.com%2Fcss%3Ffamily%3DArchitects%2BDaughter;fontSize=16;" edge="1" parent="1">
          <mxGeometry width="50" height="50" relative="1" as="geometry">
            <mxPoint x="30" y="740" as="sourcePoint" />
            <mxPoint x="80" y="690" as="targetPoint" />
          </mxGeometry>
        </mxCell>
        <mxCell id="6Lv1y3OCeT_dJhG8CFiY-49" value="" style="endArrow=classic;html=1;rounded=0;fontFamily=Architects Daughter;fontSource=https%3A%2F%2Ffonts.googleapis.com%2Fcss%3Ffamily%3DArchitects%2BDaughter;fontSize=16;" edge="1" parent="1">
          <mxGeometry width="50" height="50" relative="1" as="geometry">
            <mxPoint x="30" y="740" as="sourcePoint" />
            <mxPoint x="80" y="690" as="targetPoint" />
          </mxGeometry>
        </mxCell>
        <mxCell id="6Lv1y3OCeT_dJhG8CFiY-51" value="" style="edgeStyle=none;html=1;endArrow=open;endSize=12;strokeWidth=3;verticalAlign=bottom;rounded=0;sketch=1;hachureGap=4;jiggle=2;curveFitting=1;fontFamily=Architects Daughter;fontSource=https%3A%2F%2Ffonts.googleapis.com%2Fcss%3Ffamily%3DArchitects%2BDaughter;fontSize=16;entryX=0.5;entryY=0;entryDx=0;entryDy=0;exitX=0.276;exitY=0.513;exitDx=0;exitDy=0;exitPerimeter=0;" edge="1" parent="1" target="6Lv1y3OCeT_dJhG8CFiY-4">
          <mxGeometry width="160" relative="1" as="geometry">
            <mxPoint x="80.07999999999993" y="677.3399999999999" as="sourcePoint" />
            <mxPoint x="87.58999999999969" y="970.56" as="targetPoint" />
          </mxGeometry>
        </mxCell>
        <mxCell id="6Lv1y3OCeT_dJhG8CFiY-52" value="Data Visualization" style="text;html=1;align=center;verticalAlign=middle;resizable=0;points=[];autosize=1;strokeColor=none;fillColor=none;fontSize=16;fontFamily=Architects Daughter;" vertex="1" parent="1">
          <mxGeometry x="-180" y="850" width="150" height="30" as="geometry" />
        </mxCell>
      </root>
    </mxGraphModel>
  </diagram>
</mxfile>
